<svg width="14" height="14" viewBox="0 0 14 14" fill="none" xmlns="http://www.w3.org/2000/svg">
<g id="rotate-cw" clip-path="url(#clip0_1208_660)">
<path id="Vector" d="M13.4167 2.33337V5.83337H9.91675" stroke="white" stroke-width="1.5" stroke-linecap="round" stroke-linejoin="round"/>
<path id="Vector_2" d="M11.9526 8.74997C11.5734 9.82325 10.8557 10.7442 9.90752 11.3741C8.95937 12.004 7.83219 12.3086 6.69584 12.2421C5.55948 12.1757 4.47552 11.7417 3.60728 11.0055C2.73905 10.2694 2.13359 9.27101 1.88214 8.16083C1.63069 7.05065 1.74687 5.88883 2.21318 4.85042C2.67949 3.81202 3.47066 2.9533 4.46747 2.40367C5.46427 1.85404 6.61272 1.64328 7.73973 1.80313C8.86675 1.96299 9.91128 2.48481 10.7159 3.28997L13.4168 5.8333" stroke="white" stroke-width="1.5" stroke-linecap="round" stroke-linejoin="round"/>
</g>
<defs>
<clipPath id="clip0_1208_660">
<rect width="14" height="14" fill="white"/>
</clipPath>
</defs>
</svg>
